<svg xmlns="http://www.w3.org/2000/svg" width="50" height="50" viewBox="0 0 50 50" fill="none">
<mask id="mask0_1164_84834" style="mask-type:alpha" maskUnits="userSpaceOnUse" x="0" y="0" width="50" height="49">
<ellipse cx="25.25" cy="24.75" rx="24.75" ry="24.25" fill="white"/>
</mask>
<g mask="url(#mask0_1164_84834)">
<path fill-rule="evenodd" clip-rule="evenodd" d="M41.7963 34.5148C41.7418 34.5148 41.6862 34.5093 41.6297 34.4984C41.4238 34.4571 41.2225 34.3908 41.0461 34.3061C40.7378 34.1583 40.4432 33.9923 40.1957 33.8494C39.7658 33.6023 39.3908 33.4197 38.9589 33.3334C38.7899 33.2996 38.5524 33.2308 38.4416 33.0239C38.3307 32.8169 38.4034 32.5838 38.4793 32.4039C38.4996 32.3514 38.5285 32.2928 38.5633 32.2364C38.6931 32.0135 38.989 31.9003 39.2488 31.9777L39.2937 31.9907C39.4239 32.0281 39.5713 32.0705 39.6929 32.1665C39.9499 32.3701 40.2499 32.5086 40.5676 32.6554C40.7033 32.7181 40.8388 32.7808 40.9711 32.8485C41.2819 33.0061 41.5425 33.0527 41.8176 32.9999C42.037 32.9574 42.1831 33.0205 42.2667 33.081C42.3505 33.1421 42.456 33.2614 42.4815 33.4835C42.4887 33.5471 42.493 33.6108 42.4965 33.6665L42.5002 33.7198L42.4942 33.797C42.4911 33.8376 42.4883 33.8732 42.4843 33.9095C42.4593 34.1097 42.3624 34.2782 42.2114 34.3868C42.0942 34.4712 41.9506 34.5148 41.7963 34.5148Z" fill="white"/>
<path fill-rule="evenodd" clip-rule="evenodd" d="M40.1188 27.2969C40.0902 27.2969 40.0634 27.2956 40.0385 27.2944C40.0191 27.2934 39.9996 27.2925 39.9805 27.2925C39.6905 27.2905 39.4393 27.149 39.3683 26.9482C39.3232 26.8193 39.336 26.6764 39.4038 26.545C39.4842 26.3892 39.6301 26.27 39.8045 26.218C40.1195 26.1256 40.4611 26.0465 40.8333 26.0877C41.0154 26.1091 41.1972 26.1248 41.3793 26.1406C41.679 26.1683 41.9893 26.1612 42.3567 26.1174C42.6673 26.0805 42.8114 26.0177 42.9072 25.8773C43.0177 25.7197 43.2902 25.677 43.4389 25.7143C43.6023 25.7549 43.7643 25.9085 43.8077 26.0641C43.8762 26.3043 43.866 26.6665 43.4281 27.0234C43.2902 27.1322 43.093 27.1522 42.9874 27.1546C42.708 27.1615 42.4279 27.1608 42.1481 27.1598L41.8816 27.1593C41.6794 27.177 41.4777 27.1786 41.2826 27.1802C40.9324 27.183 40.6015 27.1856 40.2843 27.2763C40.2264 27.2927 40.1703 27.2969 40.1188 27.2969Z" fill="white"/>
<path fill-rule="evenodd" clip-rule="evenodd" d="M39.13 22.7518C38.9866 22.7518 38.8414 22.6986 38.7338 22.605C38.6396 22.5232 38.585 22.4179 38.5798 22.3085C38.571 22.1452 38.5729 21.9712 38.6477 21.8168C38.7353 21.6316 38.8595 21.4522 39.0061 21.2993C39.5545 20.7276 40.0161 20.0669 40.4627 19.4279L40.6346 19.1824C40.7673 18.9952 40.9318 18.7631 41.2645 18.6929C41.4107 18.6606 41.6833 18.6546 41.8242 18.7736C41.893 18.8316 41.9295 18.9142 41.9247 19.0005C41.9174 19.1316 41.8985 19.2832 41.8157 19.4102C41.5555 19.8085 41.2704 20.2283 40.9192 20.7319C40.5728 21.2301 40.2155 21.734 39.857 22.2291C39.7617 22.3618 39.6424 22.4933 39.5033 22.6188L39.5026 22.6194C39.4167 22.6963 39.313 22.7201 39.2509 22.7342L39.1771 22.7499C39.1614 22.7512 39.1458 22.7518 39.13 22.7518Z" fill="white"/>
<path fill-rule="evenodd" clip-rule="evenodd" d="M8.85456 33.7962C8.75752 33.7962 8.66562 33.7828 8.58212 33.7554C8.40061 33.6903 8.2657 33.5578 8.20556 33.3895C8.1571 33.2544 8.16626 33.116 8.23055 33.0103C8.28491 32.9203 8.34309 32.8244 8.43543 32.753C8.56935 32.6507 8.72009 32.5357 8.89483 32.4594C9.61107 32.1464 10.3095 31.7549 10.9848 31.3763C11.2376 31.2347 11.4903 31.093 11.7445 30.9547L11.746 30.9539C11.9025 30.8704 12.0839 30.8574 12.2407 30.8557C12.3751 30.8544 12.5014 30.9273 12.5857 31.0563C12.6588 31.1688 12.7108 31.3455 12.6362 31.5048C12.4967 31.8034 12.2834 32.0397 12.0019 32.207C11.8592 32.2922 11.7175 32.3799 11.5759 32.4676C11.3517 32.6064 11.1197 32.75 10.8844 32.8827C10.6375 33.0213 10.3846 33.1536 10.1399 33.2816C9.93306 33.3897 9.72611 33.4979 9.52156 33.6106C9.30043 33.7324 9.06576 33.7962 8.85456 33.7962Z" fill="white"/>
<path fill-rule="evenodd" clip-rule="evenodd" d="M8.96589 27.0028C8.88566 27.0028 8.80588 27.0016 8.72696 27.0003L8.56237 26.9983C8.43957 26.9968 8.30336 26.9723 8.17827 26.9292C7.94589 26.8481 7.80193 26.6749 7.79254 26.4655C7.78163 26.2304 7.93476 26.0223 8.16496 25.9597C8.42637 25.8911 8.69858 25.8406 8.97593 25.8094C9.12841 25.7922 9.28198 25.7846 9.43054 25.7772C9.6282 25.7676 9.81507 25.7584 9.99429 25.7282C10.6055 25.6248 11.1181 25.7895 11.581 25.9823C11.8041 26.0762 11.9246 26.2674 11.9043 26.494C11.8807 26.7416 11.6413 26.9454 11.3586 26.9602C11.3183 26.9627 11.278 26.9625 11.2142 26.9622L11.0685 26.9569C10.5524 26.8517 9.94506 26.9109 9.47376 26.9744C9.30469 26.9973 9.1342 27.0028 8.96589 27.0028Z" fill="white"/>
<path fill-rule="evenodd" clip-rule="evenodd" d="M11.7148 22.413C11.7093 22.413 11.7036 22.4129 11.6981 22.4127C11.5319 22.4061 11.3596 22.3991 11.2023 22.322H11.2022C10.9491 22.1978 10.6837 22.0578 10.4575 21.8748C9.65895 21.2327 9.02927 20.553 8.53308 19.7975C8.19002 19.2764 8.00513 18.7277 7.98352 18.1665C7.97817 17.9763 8.15804 17.8537 8.26566 17.7973C8.41749 17.7196 8.6312 17.7953 8.71536 17.9114C8.80082 18.0306 8.88738 18.1605 8.94544 18.3095C9.35442 19.333 10.1787 20.077 10.9877 20.7514C11.0685 20.8188 11.1798 20.8703 11.2977 20.9248C11.3463 20.9473 11.3946 20.9698 11.4419 20.9935C11.5018 21.0239 11.5632 21.0511 11.6246 21.0785C11.7404 21.1302 11.8604 21.1835 11.9756 21.256C12.1842 21.3837 12.3074 21.6153 12.287 21.8444C12.2465 22.1653 11.9923 22.413 11.7148 22.413Z" fill="white"/>
<path fill-rule="evenodd" clip-rule="evenodd" d="M35.2676 28.5306C35.2174 29.2918 34.9872 29.2837 34.9788 29.9991C34.9705 30.7144 34.9711 31.0839 34.6645 31.2041C34.3576 31.3243 33.4358 31.5462 32.4947 31.5473C31.5536 31.5485 31.5513 31.5984 31.3388 31.3417C31.1264 31.0852 31.0507 30.109 31.0165 29.0477C30.9822 27.9865 30.9477 27.0991 30.7967 26.3787C30.6457 25.6582 30.8459 24.0927 31.0729 23.5981C31.2998 23.1035 31.2599 23.1636 31.4334 23.0872C31.4334 23.0872 32.1139 23.124 32.4947 23.0872C32.8754 23.0505 33.7498 22.8967 34.0904 23.1043C34.4311 23.3118 34.5941 23.7162 34.856 24.8815C35.1181 26.0469 35.3179 27.7693 35.2676 28.5306ZM30.5403 17.9938C30.4006 17.2907 30.4719 17.7047 30.0076 16.797C29.543 15.8893 29.2867 15.9266 28.4638 15.3853C27.6407 14.8438 25.8956 14.3439 25.6292 14.2513C25.3627 14.1586 25.4475 14.2151 25.1563 14.1996C24.8652 14.1841 24.4103 13.9834 22.9423 14.1996C21.4742 14.4156 20.2979 15.2806 19.4536 16.2798C18.6094 17.279 18.0914 18.4049 17.6525 19.2146C17.2137 20.0244 17.2873 20.715 17.2364 21.1801C17.1855 21.6452 17.1077 21.5813 16.9451 21.6815C16.7824 21.7814 16.4189 21.6815 16.4189 21.6815C16.2459 21.648 16.4693 21.213 16.5043 20.853C16.5394 20.493 16.4339 20.0559 16.4189 19.7546C16.4036 19.4535 16.4883 19.3958 16.5822 19.2382C16.6759 19.0806 17.0182 18.4334 17.1921 18.0818C17.366 17.7304 17.7801 16.8595 17.9738 16.5133C18.1674 16.1673 18.3365 15.6508 19.4009 14.7234C20.4653 13.796 21.0478 13.5777 21.5948 13.3521C22.142 13.1264 23.2672 12.5136 23.5773 12.4092C23.8875 12.3048 24.0095 12.2741 24.4841 12.232C24.9586 12.19 26.224 12.3893 26.5625 12.4242C26.901 12.4592 26.8712 12.476 27.2436 12.7784C27.616 13.081 28.1492 13.6388 28.6307 13.9869C29.112 14.335 29.6433 14.6992 29.8313 14.8693C30.0194 15.0395 30.4048 15.3285 30.447 15.624C30.4892 15.9195 30.7122 16.0684 30.8679 16.271C31.0235 16.4735 31.0508 16.6992 31.4287 18.1379C31.8066 19.5765 31.9005 19.5826 31.99 20.1436C32.0794 20.7047 31.9941 21.0915 31.827 21.3025C31.6601 21.5134 31.6068 21.4092 31.4872 21.2971C31.3677 21.185 31.2967 20.5177 31.0497 19.7749C30.8027 19.0322 30.6801 18.6971 30.5403 17.9938ZM19.2675 25.3307C19.4489 26.4929 19.7656 28.9926 19.5645 30.0406C19.3635 31.0887 19.0219 31.6068 18.6452 31.8556C18.2687 32.1044 17.4418 32.2467 16.4934 31.9572C15.5449 31.6676 15.1808 31.4425 14.8422 30.4432C14.5035 29.4439 14.6921 29.609 14.5669 28.9423C14.4417 28.2757 14.2851 28.0554 14.3138 27.5383C14.3426 27.0213 14.2344 25.3448 14.3505 24.7856C14.4667 24.2264 14.4316 23.6849 14.9481 23.5927C15.4647 23.5006 15.7734 23.72 16.1132 23.5897C16.453 23.4595 16.4184 23.4049 16.7639 23.3469C17.0923 23.2918 17.7319 23.1035 18.1485 23.2942C18.5651 23.4848 19.0862 24.1683 19.2675 25.3307ZM36.3737 26.403C36.1465 25.7508 36.2456 25.1623 36.0693 24.1064C35.8929 23.0505 35.435 22.69 35.435 22.69C35.435 22.69 35.2183 22.0396 34.3605 21.7971C33.5029 21.5549 33.7536 21.7466 33.6649 21.255C33.5764 20.7633 33.5598 20.6809 33.4484 20.1819C33.3368 19.6831 33.3066 19.4512 33.2817 18.9287C33.2568 18.4062 33.2561 17.8174 33.0207 17.3513C32.7855 16.8855 32.3458 16.0096 31.8797 15.2308C31.4135 14.4519 31.1168 14.0576 30.3873 13.451C29.6579 12.8443 29.2095 12.2084 28.4705 11.8145C27.7315 11.4208 27.7828 11.3078 27.0445 11.1102C26.3063 10.9126 26.2046 11.0314 25.2406 10.9497C24.2767 10.868 24.1825 10.8016 23.4486 10.9497C22.7147 11.0979 22.2377 11.5293 21.3768 11.927C20.516 12.3246 20.1636 12.3125 19.5765 12.8171C18.9895 13.3217 19.1188 13.4766 18.6255 13.8873C18.1323 14.2979 17.8382 14.5302 17.1752 15.6562C16.5121 16.7824 16.03 17.9254 15.7917 18.4563C15.5535 18.9873 15.337 19.1467 15.3074 19.7418C15.2778 20.3371 15.4006 20.244 15.2596 20.9275C15.1186 21.6109 14.9695 22.1687 14.9695 22.1687C14.9695 22.1687 14.1033 22.1521 13.6024 23.1043C13.1014 24.0565 13.1434 24.4365 13.0758 24.9944C13.0081 25.5523 13.1442 27.028 13.2466 28.0024C13.349 28.9768 13.4144 30.3638 13.5844 30.8563C13.7542 31.3485 14.3692 32.7425 15.7047 33.1581C17.0403 33.5736 17.3415 33.6312 17.7361 33.5318C18.1308 33.4325 18.8303 33.2314 19.3239 33.0649C19.8174 32.8986 20.4052 32.368 20.6787 31.1574C20.9523 29.9468 20.9694 29.3469 20.8602 27.6747C20.7511 26.0024 20.7617 25.121 20.2962 23.8541C19.8308 22.5873 19.1484 22.4041 18.8389 22.1194C18.5295 21.8348 18.5048 21.9206 18.5454 21.5331C18.586 21.1456 18.4953 20.2655 19.4768 18.7261C20.4583 17.1867 21.4739 16.2254 22.9422 15.7928C24.4104 15.3601 25.5001 15.7085 26.0428 15.9064C26.5858 16.1045 26.7401 16.1756 27.2101 16.2644C27.6799 16.3531 28.0086 16.6297 28.3027 16.9798C28.5969 17.33 29.2078 18.1997 29.4795 18.8004C29.7511 19.4011 29.5962 19.685 29.9013 20.349C30.2064 21.013 30.5058 21.2256 30.4422 21.6815C30.3786 22.1372 30.3123 22.0057 30.1996 22.3298C30.087 22.654 29.6535 23.2662 29.5907 24.012C29.5279 24.758 29.4709 25.3745 29.4842 26.1981C29.4974 27.0215 29.6785 27.2866 29.6671 28.2393C29.656 29.1918 29.5765 30.7782 29.855 31.5473C30.1334 32.3166 30.3229 32.8225 30.6531 32.9551C30.9832 33.0875 30.9055 33.1025 31.1093 33.0866C31.1093 33.0866 31.3391 32.9559 31.9404 32.9692C32.5415 32.9824 34.1838 33.0904 35.0651 32.5908C35.9462 32.0912 36.1059 31.8148 36.2991 30.1858C36.4925 28.557 36.6007 27.0552 36.3737 26.403Z" fill="white"/>
</g>
</svg>