<svg xmlns="http://www.w3.org/2000/svg" aria-label="Overcast" role="img" viewBox="0 0 512 512" stroke-linecap="round" stroke-width="23">
  <g id="SVGRepo_bgCarrier" stroke-width="0"></g>
  <g id="SVGRepo_tracerCarrier" stroke-linecap="round" stroke-linejoin="round"></g>
  <g id="SVGRepo_iconCarrier">
    <g fill="none" stroke="#ffffff">
      <circle cx="255" cy="255" r="175"></circle>
      <path d="m160 181.1s-24.2 27.3-24.2 75 24.2 73.9 24.2 73.9"></path>
      <path d="m352.8 181.1s24.2 27.3 24.2 75-24.2 73.9-24.2 73.9"></path>
      <path d="m314.2 213s16.3 20.3 15.9 43c-.5 27.3-15.7 42.3-15.7 42.3"></path>
      <path d="m197.8 213s-16.3 20.3-15.9 43c.5 27.3 15.7 42.3 15.7 42.3"></path>
    </g>
    <g fill="#ffffff">
      <circle cx="255" cy="255" r="32"></circle>
      <path d="m260.4 284.9-22.7-6.1-37.8 141.2 22.7 6.1z"></path>
      <path d="m251.6 284.7 22.6-6 37.6 141.3-22.6 6z"></path>
      <path d="m230.6 360.9 8.4-8.6 58.2 56.7-8.4 8.6z"></path>
      <path d="m279.9 361.2-7.6-7.7-57.7 57.3 7.6 7.7z"></path>
    </g>
  </g>
</svg>